<svg width="180" height="180" viewBox="0 0 180 180" fill="none" xmlns="http://www.w3.org/2000/svg">
<g clip-path="url(#clip0_510_98)">
<g clip-path="url(#clip1_510_98)">
<rect x="-10.1061" y="-16.5112" width="237.694" height="204.793" fill="#001F4E"/>
<path d="M35.5234 127.134C85.5031 127.134 119.51 87.4594 119.51 29.7509C119.51 -28.988 86.5336 -66.6016 36.0387 -66.6016C-13.941 -66.6016 -47.6901 -26.927 -47.6901 30.7815C-47.6901 89.5204 -14.9715 127.134 35.5234 127.134ZM36.0387 123.527C-1.31724 123.527 -22.4427 82.3069 -22.4427 30.2662C-22.4427 -23.3202 -2.09012 -62.9948 35.5234 -62.9948C73.137 -62.9948 94.0048 -21.7745 94.0048 30.2662C94.0048 83.8526 73.6523 123.527 36.0387 123.527Z" fill="white"/>
<path d="M86.2911 232.559C121.328 232.559 145.03 209.373 145.03 178.2C145.03 147.284 123.132 135.176 100.461 123.84L87.5792 117.4C72.3792 109.671 55.3758 101.427 55.3758 78.7556C55.3758 57.115 69.8029 42.4302 91.4436 42.4302C110.508 42.4302 126.481 53.7658 136.528 80.559H138.074V49.9014C125.708 43.4607 106.644 38.8234 92.4741 38.8234C61.8165 38.8234 40.1758 60.7217 40.1758 90.0912C40.1758 117.657 57.9521 129.508 76.2436 138.525L89.125 144.966C111.281 156.044 129.83 166.091 129.83 190.051C129.83 214.783 110.25 228.952 89.3826 228.952C66.7114 228.952 48.1623 213.495 37.8572 181.807H36.3114L37.8572 221.223C49.708 227.922 71.3487 232.559 86.2911 232.559Z" fill="#FFE65C"/>
<path d="M93.0533 51.2732C93.5566 44.9996 94.0823 35.3502 94.0823 30.4216C102.351 27.7678 119.007 24.4749 119.483 32.5339C119.96 40.5929 117.696 52.9702 116.505 58.1515C108.272 58.4945 92.5696 57.3019 93.0533 51.2732Z" fill="white"/>
</g>
</g>
<defs>
<clipPath id="clip0_510_98">
<rect width="180" height="180" fill="white"/>
</clipPath>
<clipPath id="clip1_510_98">
<rect width="180" height="180" fill="white"/>
</clipPath>
</defs>
</svg>
